<svg width="18" height="16" viewBox="0 0 18 16" fill="none" xmlns="http://www.w3.org/2000/svg">
<path d="M16.3125 13H1.6875C1.53832 13 1.39524 13.0527 1.28975 13.1464C1.18426 13.2402 1.125 13.3674 1.125 13.5V14.5C1.125 14.6326 1.18426 14.7598 1.28975 14.8536C1.39524 14.9473 1.53832 15 1.6875 15H16.3125C16.4617 15 16.6048 14.9473 16.7102 14.8536C16.8157 14.7598 16.875 14.6326 16.875 14.5V13.5C16.875 13.3674 16.8157 13.2402 16.7102 13.1464C16.6048 13.0527 16.4617 13 16.3125 13ZM16.3125 9H1.6875C1.53832 9 1.39524 9.05268 1.28975 9.14645C1.18426 9.24021 1.125 9.36739 1.125 9.5V10.5C1.125 10.6326 1.18426 10.7598 1.28975 10.8536C1.39524 10.9473 1.53832 11 1.6875 11H16.3125C16.4617 11 16.6048 10.9473 16.7102 10.8536C16.8157 10.7598 16.875 10.6326 16.875 10.5V9.5C16.875 9.36739 16.8157 9.24021 16.7102 9.14645C16.6048 9.05268 16.4617 9 16.3125 9ZM16.3125 5H1.6875C1.53832 5 1.39524 5.05268 1.28975 5.14645C1.18426 5.24021 1.125 5.36739 1.125 5.5V6.5C1.125 6.63261 1.18426 6.75979 1.28975 6.85355C1.39524 6.94732 1.53832 7 1.6875 7H16.3125C16.4617 7 16.6048 6.94732 16.7102 6.85355C16.8157 6.75979 16.875 6.63261 16.875 6.5V5.5C16.875 5.36739 16.8157 5.24021 16.7102 5.14645C16.6048 5.05268 16.4617 5 16.3125 5ZM16.3125 1H1.6875C1.53832 1 1.39524 1.05268 1.28975 1.14645C1.18426 1.24021 1.125 1.36739 1.125 1.5V2.5C1.125 2.63261 1.18426 2.75979 1.28975 2.85355C1.39524 2.94732 1.53832 3 1.6875 3H16.3125C16.4617 3 16.6048 2.94732 16.7102 2.85355C16.8157 2.75979 16.875 2.63261 16.875 2.5V1.5C16.875 1.36739 16.8157 1.24021 16.7102 1.14645C16.6048 1.05268 16.4617 1 16.3125 1Z" fill="#D60665"/>
</svg>
