<svg width="18" height="16" viewBox="0 0 18 16" fill="none" xmlns="http://www.w3.org/2000/svg">
<g clip-path="url(#clip0_3_68)">
<path d="M0.75 1.38889H3.9541C4.07568 1.38891 4.14752 1.44402 4.18066 1.49142L4.20117 1.53439L4.48828 2.77853L4.57715 3.16623H17.25C17.3521 3.16631 17.4251 3.20816 17.4639 3.25119C17.4823 3.27172 17.4925 3.2911 17.4971 3.30881V3.35764L16.0195 9.13498C16.0073 9.18287 15.9316 9.27754 15.7725 9.27756H5.9834L6.12402 9.88986L6.3291 10.7785L6.41797 11.1662H15.2041C15.3062 11.1662 15.3792 11.2082 15.418 11.2512C15.4364 11.2717 15.4466 11.2911 15.4512 11.3088V11.3576L15.2783 12.0315L15.1729 12.4455L15.5654 12.6145C15.9976 12.8011 16.25 13.1719 16.25 13.5559C16.2498 14.0895 15.7376 14.6202 14.9805 14.6106L14.8486 14.6037C14.2456 14.5428 13.8241 14.1233 13.7588 13.6789L13.75 13.5832C13.7414 13.298 13.8689 13.0267 14.1045 12.8215L15.1113 11.9445H5.88867L6.89551 12.8215C7.12381 13.0203 7.25 13.2816 7.25 13.5559C7.24979 14.0993 6.71673 14.6416 5.9375 14.6096L5.81152 14.5988C5.23656 14.5261 4.83464 14.1279 4.76172 13.7014L4.75195 13.6096C4.72951 13.2275 4.95269 12.858 5.35645 12.6516L5.7041 12.4738L5.61621 12.094L3.4209 2.5549L3.33203 2.16623H0.75C0.662715 2.16623 0.593992 2.1354 0.551758 2.09787C0.51056 2.06125 0.50006 2.02576 0.5 2.00021V1.55588C0.5 1.53036 0.510638 1.49487 0.551758 1.45822C0.593989 1.42068 0.662692 1.38889 0.75 1.38889ZM10.125 3.72189C9.69875 3.72189 9.25 4.04192 9.25 4.55588V5.72189H8.40527C8.05007 5.72192 7.74419 5.91931 7.60547 6.21701C7.48022 6.48602 7.5069 6.81246 7.70996 7.06271L7.80762 7.16525L9.90234 9.02658C10.2173 9.3065 10.6968 9.32419 11.0322 9.07932L11.0977 9.02658L13.1924 7.16525C13.4827 6.90718 13.5377 6.52445 13.3945 6.21701C13.2558 5.91933 12.9499 5.72192 12.5947 5.72189H11.75V4.55588C11.75 4.04192 11.3012 3.72189 10.875 3.72189H10.125Z" stroke="#D60665"/>
</g>
<defs>
<clipPath id="clip0_3_68">
<rect width="18" height="16" fill="white"/>
</clipPath>
</defs>
</svg>
