<svg width="20" height="20" viewBox="0 0 20 20" fill="none" xmlns="http://www.w3.org/2000/svg">
<g clip-path="url(#clip0_8_192)">
<path d="M10 0.8125C15.0737 0.8125 19.1875 4.92777 19.1875 10C19.1875 15.0753 15.0738 19.1875 10 19.1875C4.92621 19.1875 0.8125 15.0753 0.8125 10C0.8125 4.92777 4.92631 0.8125 10 0.8125ZM10 4.10938C8.81776 4.10938 7.85938 5.06776 7.85938 6.25C7.85938 7.16509 8.43444 7.94377 9.24219 8.25H8.28125C7.74624 8.25 7.3125 8.68374 7.3125 9.21875V10.1562C7.3125 10.6808 7.72947 11.1065 8.25 11.123V12.626C7.72946 12.6425 7.3125 13.0692 7.3125 13.5938V14.5312C7.3125 15.0663 7.74624 15.5 8.28125 15.5H11.7188C12.2538 15.5 12.6875 15.0663 12.6875 14.5312V13.5938C12.6875 13.0692 12.2705 12.6425 11.75 12.626V9.21875C11.75 8.68374 11.3163 8.25 10.7812 8.25H10.7578C11.5656 7.94377 12.1406 7.16509 12.1406 6.25C12.1406 5.06776 11.1822 4.10938 10 4.10938Z" stroke="#D60665"/>
</g>
<defs>
<clipPath id="clip0_8_192">
<rect width="20" height="20" fill="white"/>
</clipPath>
</defs>
</svg>
