<svg width="18" height="16" viewBox="0 0 18 16" fill="none" xmlns="http://www.w3.org/2000/svg">
<g clip-path="url(#clip0_3_74)">
<path d="M13.6221 11.5L16.8438 14.3633L16.1592 14.9727L12.8125 11.9971V11.5H13.6221ZM7.3125 1C10.9136 1 13.625 3.56913 13.625 6.5C13.625 7.74568 13.151 8.9032 12.3271 9.83984L11.8525 10.3789L11.2422 10.8037C10.1707 11.5484 8.80902 12 7.3125 12C3.71135 12 1 9.43087 1 6.5C1 3.56913 3.71135 1 7.3125 1ZM7.3125 1.5C4.3846 1.5 1.8125 3.63134 1.8125 6.5C1.8125 9.37273 4.38918 11.5 7.3125 11.5C10.2404 11.5 12.8125 9.36866 12.8125 6.5C12.8125 3.62727 10.2358 1.5 7.3125 1.5Z" stroke="#D60665" stroke-width="2"/>
</g>
<defs>
<clipPath id="clip0_3_74">
<rect width="18" height="16" fill="white"/>
</clipPath>
</defs>
</svg>
