<svg width="15" height="18" viewBox="0 0 15 18" fill="none" xmlns="http://www.w3.org/2000/svg">
<path d="M11.7861 0.5C13.2848 0.500226 14.4998 1.71515 14.5 3.21387C14.5 4.71277 13.285 5.92848 11.7861 5.92871C11.1465 5.92871 10.5596 5.7077 10.0957 5.33789L9.81934 5.11719L9.51855 5.30469L6.08691 7.44922L5.78809 7.63672L5.86426 7.98145C5.95015 8.36995 5.95012 8.77262 5.86426 9.16113L5.78809 9.50586L6.08691 9.69336L9.51855 11.8379L9.81836 12.0254L10.0957 11.8047C10.5596 11.435 11.1466 11.2139 11.7861 11.2139C13.285 11.2141 14.5 12.4298 14.5 13.9287C14.4999 15.4276 13.2849 16.6424 11.7861 16.6426C10.2871 16.6426 9.07136 15.4277 9.07129 13.9287L9.0752 13.7803C9.08324 13.6318 9.10358 13.4842 9.13574 13.3389L9.21191 12.9941L8.91309 12.8066L5.48145 10.6621L5.18164 10.4746L4.9043 10.6953C4.44041 11.065 3.85339 11.2861 3.21387 11.2861C1.71501 11.2859 0.5 10.0702 0.5 8.57129C0.500075 7.07245 1.71506 5.85765 3.21387 5.85742C3.85333 5.85742 4.44043 6.07761 4.9043 6.44727L5.18164 6.66797L5.48145 6.48047L8.91309 4.33594L9.21191 4.14844L9.13574 3.80371C9.09377 3.61404 9.07129 3.41652 9.07129 3.21387C9.07152 1.71501 10.2872 0.5 11.7861 0.5Z" stroke="#D60665"/>
</svg>
